# xmcd
#
# Track frame offsets: 
#        150
#        13223
#        26277
#        48059
#        61503
#        84069
#        101542
#        118974
#        132285
#        145854
#        163477
#        179860
#        192809
#        208813
#
# Disc length: 2986 seconds
#
# Revision: 0
# Processed by: cddbd v1.5.2PL0 Copyright (c) Steve Scherf et al.
# Submitted via: ExactAudioCopyFreeDBPlugin 1.0
#
DISCID=bf0ba80e
DTITLE=แฮมเมอร์ - รวมสุดยอดเพลงฮิตเพื่อชีวิต 2
DYEAR=1900
DGENRE=pop
TTITLE0=สาวรำวง
TTITLE1=สาวมอเตอร์ไซด์
TTITLE2=จิตร ภูมิศักดิ์
TTITLE3=แม่ขนตางอน
TTITLE4=มิดะ
TTITLE5=อุ้ยคำ
TTITLE6=มยุรา
TTITLE7=คิดถึงบ้าน
TTITLE8=ความรัก
TTITLE9=น.ส.ไทยแลนด์
TTITLE10=บุหงาอันดามัน
TTITLE11=ผ้าผวยและสายลมหนาว
TTITLE12=คืนรัง
TTITLE13=คนหลังเขา
EXTD=
EXTT0=
EXTT1=
EXTT2=
EXTT3=
EXTT4=
EXTT5=
EXTT6=
EXTT7=
EXTT8=
EXTT9=
EXTT10=
EXTT11=
EXTT12=
EXTT13=
PLAYORDER=
